<?xml version="1.0" encoding="UTF-8"?>
<!-- Generator: Adobe Illustrator 22.0.1, SVG Export Plug-In . SVG Version: 6.00 Build 0)  -->
<svg version="1.1" id="Layer_1" xmlns="http://www.w3.org/2000/svg" xmlns:xlink="http://www.w3.org/1999/xlink" x="0px" y="0px" viewBox="0 0 300 100" style="enable-background:new 0 0 300 100;" xml:space="preserve"><link xmlns="" type="text/css" rel="stylesheet" id="dark-mode-custom-link"/><link xmlns="" type="text/css" rel="stylesheet" id="dark-mode-general-link"/><style xmlns="" lang="en" type="text/css" id="dark-mode-custom-style"/><style xmlns="" lang="en" type="text/css" id="dark-mode-native-style"/><style xmlns="" lang="en" type="text/css" id="dark-mode-native-sheet"/>
<style type="text/css">
	.st0{fill:#FF9900;}
	.st1{fill:#333333;}
</style>
<g>
	<path class="st0" d="M178.004,76.882c-13.526,10.04-33.145,15.393-50.053,15.393c-23.671,0-44.979-8.771-61.111-23.457   c-1.269-1.164-0.141-2.711,1.41-1.83c17.401,10.181,38.923,16.31,61.148,16.31c15.005,0,31.489-3.135,46.635-9.616   C178.323,72.761,180.222,75.261,178.004,76.882"/>
	<path class="st0" d="M183.64,70.438c-1.725-2.218-11.446-1.059-15.817-0.529c-1.337,0.141-1.551-1.022-0.352-1.83   c7.749-5.458,20.431-3.911,21.91-2.044c1.479,1.83-0.388,14.617-7.644,20.746c-1.127,0.949-2.186,0.424-1.689-0.812   C181.705,81.851,185.365,72.656,183.64,70.438"/>
	<path class="st1" d="M168.142,29.438v-5.317c0-0.812,0.598-1.337,1.337-1.337h23.704c0.739,0,1.374,0.562,1.374,1.337v4.545   c0,0.776-0.634,1.762-1.798,3.345l-12.258,17.611c4.577-0.105,9.369,0.562,13.49,2.925c0.949,0.529,1.196,1.305,1.269,2.077v5.672   c0,0.776-0.844,1.689-1.762,1.196c-7.292-3.838-16.977-4.262-25.045,0.036c-0.812,0.457-1.689-0.424-1.689-1.232v-5.353   c0-0.844,0-2.323,0.881-3.628l14.229-20.5h-12.363C168.74,30.775,168.142,30.246,168.142,29.438 M81.703,62.62h-7.22   c-0.671-0.036-1.232-0.562-1.305-1.196V24.226c0-0.739,0.598-1.337,1.374-1.337h6.727c0.703,0.036,1.269,0.562,1.305,1.232v4.86   h0.141c1.762-4.687,5.038-6.868,9.474-6.868c4.509,0,7.325,2.186,9.369,6.868c1.762-4.687,5.705-6.868,9.967-6.868   c3.03,0,6.339,1.232,8.347,4.085c2.291,3.135,1.83,7.644,1.83,11.66l-0.036,23.457c0,0.739-0.598,1.337-1.374,1.337h-7.187   c-0.703-0.036-1.269-0.634-1.269-1.337V41.623c0-1.584,0.141-5.495-0.21-6.973c-0.529-2.501-2.149-3.204-4.226-3.204   c-1.762,0-3.559,1.164-4.299,3.066c-0.739,1.867-0.671,5.002-0.671,7.115v19.655c0,0.739-0.634,1.337-1.41,1.337h-7.187   c-0.739-0.036-1.305-0.634-1.305-1.337V41.591c0-4.157,0.671-10.25-4.44-10.25c-5.179,0-4.965,5.951-4.965,10.25v19.692   C83.113,62.054,82.479,62.62,81.703,62.62 M214.988,29.685c-5.317,0-5.636,7.292-5.636,11.834s-0.069,14.229,5.567,14.229   c5.567,0,5.846-7.818,5.846-12.609c0-3.135-0.141-6.905-1.059-9.862C218.899,30.707,217.279,29.685,214.988,29.685 M214.919,22.109   c10.674,0,16.484,9.228,16.484,20.956c0,11.341-6.375,20.358-16.484,20.358c-10.496,0-16.201-9.228-16.201-20.71   C198.718,31.095,204.491,22.109,214.919,22.109 M245.281,62.62h-7.187c-0.739-0.036-1.305-0.634-1.305-1.337V24.085   c0.069-0.671,0.671-1.196,1.374-1.196h6.69c0.634,0.036,1.164,0.457,1.305,1.022v5.705h0.141c2.008-5.107,4.824-7.503,9.826-7.503   c3.204,0,6.412,1.164,8.42,4.367c1.903,2.994,1.903,7.995,1.903,11.587v23.388c-0.069,0.671-0.671,1.164-1.374,1.164h-7.22   c-0.671-0.036-1.196-0.529-1.269-1.164V41.272c0-4.085,0.493-10.003-4.509-10.003c-1.762,0-3.382,1.196-4.157,2.957   c-1.022,2.291-1.127,4.545-1.127,7.046v20.007C246.691,62.054,246.056,62.62,245.281,62.62 M162.082,55.784   c-1.305-1.83-2.711-3.313-2.711-6.727V37.785c0-4.792,0.352-9.159-3.172-12.468c-2.784-2.642-7.361-3.592-10.884-3.592   c-6.832,0-14.476,2.606-16.096,11.094c-0.178,0.949,0.493,1.41,1.091,1.551l6.973,0.739c0.634-0.036,1.127-0.671,1.232-1.337   c0.634-2.925,3.066-4.331,5.814-4.331c1.479,0,3.172,0.529,4.052,1.867c1.022,1.479,0.881,3.523,0.881,5.248v0.949   c-4.19,0.457-9.652,0.776-13.563,2.501c-4.509,1.972-7.68,5.951-7.68,11.834c0,7.539,4.719,11.308,10.779,11.308   c5.143,0,7.959-1.232,11.906-5.285c1.305,1.903,1.725,2.816,4.121,4.824c0.529,0.283,1.232,0.283,1.689-0.178   c1.442-1.232,4.052-3.559,5.567-4.792C162.648,57.23,162.543,56.455,162.082,55.784L162.082,55.784z M147.925,52.544   c-1.164,2.044-2.957,3.277-4.965,3.277c-2.784,0-4.404-2.113-4.404-5.248c0-6.165,5.495-7.292,10.706-7.292v1.584   C149.263,47.683,149.331,50.043,147.925,52.544L147.925,52.544z M67.615,55.784c-1.305-1.83-2.711-3.313-2.711-6.727V37.785   c0-4.792,0.351-9.159-3.172-12.468c-2.747-2.642-7.325-3.592-10.848-3.592c-6.868,0-14.512,2.606-16.132,11.094   c-0.178,0.949,0.493,1.41,1.059,1.551l7.01,0.739c0.634-0.036,1.091-0.671,1.232-1.337c0.598-2.925,3.066-4.331,5.814-4.331   c1.479,0,3.172,0.529,4.052,1.867c1.022,1.479,0.881,3.523,0.881,5.248v0.949c-4.19,0.457-9.652,0.776-13.563,2.501   c-4.513,1.972-7.684,5.951-7.684,11.834c0,7.539,4.719,11.308,10.779,11.308c5.143,0,7.959-1.232,11.906-5.285   c1.305,1.903,1.725,2.816,4.121,4.824c0.529,0.283,1.232,0.283,1.689-0.178c1.442-1.232,4.052-3.559,5.567-4.792   C68.177,57.23,68.072,56.455,67.615,55.784L67.615,55.784z M53.418,52.544c-1.164,2.044-2.957,3.277-5.002,3.277   c-2.784,0-4.367-2.113-4.367-5.248c0-6.165,5.495-7.292,10.706-7.292v1.584C54.756,47.683,54.828,50.043,53.418,52.544   L53.418,52.544z"/>
</g>
<script xmlns=""/></svg>