<?xml version="1.0" encoding="UTF-8"?>
<!-- Generator: Adobe Illustrator 22.0.1, SVG Export Plug-In . SVG Version: 6.00 Build 0)  -->
<svg version="1.1" id="Layer_1" xmlns="http://www.w3.org/2000/svg" xmlns:xlink="http://www.w3.org/1999/xlink" x="0px" y="0px" viewBox="0 0 300 100" style="enable-background:new 0 0 300 100;" xml:space="preserve"><link xmlns="" type="text/css" rel="stylesheet" id="dark-mode-custom-link"/><link xmlns="" type="text/css" rel="stylesheet" id="dark-mode-general-link"/><style xmlns="" lang="en" type="text/css" id="dark-mode-custom-style"/><style xmlns="" lang="en" type="text/css" id="dark-mode-native-style"/><style xmlns="" lang="en" type="text/css" id="dark-mode-native-sheet"/>
<style type="text/css">
	.st0{fill:#231F20;}
</style>
<g>
	<g>
		<path class="st0" d="M47.3,45.9c-0.1-5.8,2.4-10.3,7.5-13.6c-2.9-4.2-7.1-6.5-12.7-7.1c-2-0.2-4.5,0.3-7.7,1.4    c-3.3,1.2-5.2,1.9-5.6,1.9c-0.9,0-2.6-0.5-5.1-1.6c-2.5-1-4.6-1.6-6.4-1.6c-3,0-5.7,0.9-8.3,2.5c-2.6,1.6-4.6,3.8-6.1,6.5    C1,37.8,0,41.9,0,46.7c0,4.3,0.7,8.6,2.2,12.8c1.3,4.1,3.1,7.7,5.2,10.8c1.9,2.8,3.5,4.9,4.9,6.1c2,2,4,2.9,6.1,2.9    c1.3,0,3.1-0.5,5.3-1.5c2-0.9,4.1-1.4,6.1-1.4c1.9,0,3.9,0.4,5.9,1.4c2.3,1,4.1,1.4,5.6,1.4c2.1-0.1,4.1-1,6-2.8    c0.6-0.6,1.4-1.4,2.1-2.4c0.9-1.2,1.7-2.4,2.5-3.6c0.7-1,1.3-2.1,1.9-3.2c0.6-1.2,1.2-2.4,1.7-3.6c0.2-0.5,0.4-1.1,0.6-1.6    c0.2-0.5,0.4-1.1,0.6-1.7c-1.7-0.8-3.3-1.8-4.7-3.2C48.9,54.1,47.4,50.4,47.3,45.9L47.3,45.9z M97.9,58.6h-0.3L83.4,26.3H72.2    v52.1H82V44.7h0.4l11.8,26.8h6.8l11.8-26.8h0.4v33.7h9.8V26.3h-11L97.9,58.6z M38.6,19.5c2.5-3.1,3.7-6.4,3.7-10V8.8    c0-0.2,0-0.5-0.1-0.7c-1.7,0.1-3.5,0.6-5.5,1.6c-1.9,1-3.5,2.3-4.8,3.8c-2.5,3-3.8,6.2-3.8,9.6v0.7c0,0.2,0,0.4,0.1,0.7    C32.1,24.9,35.5,23.2,38.6,19.5L38.6,19.5z M236,26.3H247v52.1H236V26.3z M279.7,34.6c6.4,0,9.8,5,9.8,10.3H300v-1.1    c0-10.1-7.7-18.5-20.3-18.5c-13.6,0-21.7,8.9-21.7,24.2v5.9c0,15.2,8,24.1,21.6,24.1c13,0,20.4-8.5,20.4-18v-1.2h-10.4    c0,5.4-3.3,9.8-9.8,9.8c-6.6,0-10.8-4.7-10.8-14.7v-5.9C269,39.6,273.3,34.6,279.7,34.6L279.7,34.6z M164.5,59.2    c0,7-4.1,10.8-10.1,10.8c-6,0-10.1-3.8-10.1-10.8V26.3h-10.8v34.4c0,11.1,7.9,18.7,20.9,18.7c13,0,20.9-7.6,20.9-18.7V26.3h-10.9    V59.2L164.5,59.2z M211.3,48.1l-7.7-1.8c-4.6-1-7-3-7-6c0-4,3.3-6.5,8.5-6.5c5.9,0,8.9,3.4,9.1,7.1h10.1    c-0.1-9.2-7.8-15.6-19.2-15.6c-10.8,0-19.3,5.7-19.3,15.9c0,8.8,6,13,13.2,14.5l7.7,1.8c5.2,1.2,7.8,2.9,7.8,6.4    c0,4-3.2,6.8-9.2,6.8c-6.5,0-9.9-3.4-10.2-7.3h-10.4c0.2,7.4,5,15.9,20.1,15.9c12.6,0,20.5-6.3,20.5-16.5    C225.1,53.4,218.8,49.7,211.3,48.1L211.3,48.1z"/>
	</g>
</g>
<script xmlns=""/></svg>