<?xml version="1.0" encoding="UTF-8"?>
<!-- Generator: Adobe Illustrator 22.0.1, SVG Export Plug-In . SVG Version: 6.00 Build 0)  -->
<svg version="1.1" id="Layer_1" xmlns="http://www.w3.org/2000/svg" xmlns:xlink="http://www.w3.org/1999/xlink" x="0px" y="0px" viewBox="0 0 300 100" style="enable-background:new 0 0 300 100;" xml:space="preserve"><link xmlns="" type="text/css" rel="stylesheet" id="dark-mode-custom-link"/><link xmlns="" type="text/css" rel="stylesheet" id="dark-mode-general-link"/><style xmlns="" lang="en" type="text/css" id="dark-mode-custom-style"/><style xmlns="" lang="en" type="text/css" id="dark-mode-native-style"/><style xmlns="" lang="en" type="text/css" id="dark-mode-native-sheet"/>
<style type="text/css">
	.st0{fill:#E3231D;}
	.st1{fill:#EF907B;}
	.st2{fill:#FEDD00;}
	.st3{fill:#D72C88;}
	.st4{fill:#E8A8CC;}
	.st5{fill:#C3D200;}
	.st6{fill:#E4E17A;}
	.st7{fill:#40B4E6;}
	.st8{fill:#BBD9EA;}
</style>
<g>
	<rect y="77.3" class="st0" width="19.8" height="6"/>
	<rect y="69.5" class="st0" width="19.8" height="6"/>
	<rect y="61.7" class="st0" width="19.8" height="6"/>
	<rect y="53.9" class="st1" width="19.8" height="6"/>
	<rect y="46.1" class="st1" width="19.8" height="6"/>
	<rect x="22.2" y="77.3" class="st2" width="19.8" height="6"/>
	<rect x="22.2" y="69.5" class="st2" width="19.8" height="6"/>
	<rect x="22.2" y="61.7" class="st2" width="19.8" height="6"/>
	<rect x="44.4" y="77.3" class="st3" width="19.8" height="6"/>
	<rect x="44.4" y="69.5" class="st3" width="19.8" height="6"/>
	<rect x="44.4" y="61.7" class="st3" width="19.8" height="6"/>
	<rect x="44.4" y="53.9" class="st4" width="19.8" height="6"/>
	<rect x="44.4" y="46.1" class="st4" width="19.8" height="6"/>
	<rect x="44.4" y="38.3" class="st4" width="19.8" height="6"/>
	<rect x="44.4" y="30.5" class="st4" width="19.8" height="6"/>
	<rect x="66.6" y="77.3" class="st5" width="19.8" height="6"/>
	<rect x="66.6" y="69.5" class="st5" width="19.8" height="6"/>
	<rect x="66.6" y="61.7" class="st5" width="19.8" height="6"/>
	<rect x="66.6" y="53.9" class="st6" width="19.8" height="6"/>
	<rect x="66.6" y="46.1" class="st6" width="19.8" height="6"/>
	<rect x="88.8" y="77.3" class="st7" width="19.8" height="6"/>
	<rect x="88.8" y="69.5" class="st7" width="19.8" height="6"/>
	<rect x="88.8" y="61.7" class="st7" width="19.8" height="6"/>
	<rect x="88.8" y="53.9" class="st8" width="19.8" height="6"/>
	<rect x="88.8" y="46.1" class="st8" width="19.8" height="6"/>
	<rect x="88.8" y="38.3" class="st8" width="19.8" height="6"/>
	<rect x="88.8" y="30.5" class="st8" width="19.8" height="6"/>
	<rect x="88.8" y="22.7" class="st8" width="19.8" height="6"/>
	<path d="M116.4,16.7h14.8c14.9,0,16.4,5.2,16.4,24.6v19.8c0,17.1-3.4,22.2-18,22.2h-13.2C116.4,83.3,116.4,16.7,116.4,16.7z    M125.4,75.5h4.6c6.8,0,7.9-3.6,7.9-15V37.6c0-9.9-0.8-13.2-8.7-13.2h-3.9C125.4,24.4,125.4,75.5,125.4,75.5z"/>
	<polygon points="151.2,16.7 176.4,16.7 176.4,24.6 160.2,24.6 160.2,45.5 175.2,45.5 175.2,53.3 160.2,53.3 160.2,75.4 176.4,75.4    176.4,83.3 151.2,83.3  "/>
	<polygon points="180,16.7 205.2,16.7 205.2,24.6 189,24.6 189,45.5 204,45.5 204,53.3 189,53.3 189,75.4 205.2,75.4 205.2,83.3    180,83.3  "/>
	<polygon points="241.8,16.7 267,16.7 267,24.6 250.8,24.6 250.8,45.5 265.8,45.5 265.8,53.3 250.8,53.3 250.8,75.4 267,75.4    267,83.3 241.8,83.3  "/>
	<polygon points="208.8,75.5 229.5,24.5 208.8,24.5 208.8,16.7 238.2,16.7 238.2,24.5 217.8,75.5 238.2,75.5 238.2,83.3 208.8,83.3     "/>
	<path d="M270.6,16.7H285c13.5,0,14.4,3.4,14.4,18c0,8.9-0.8,13.3-8.4,15.6c6.3,0.6,8.4,3.9,8.4,10.2V75c0,2.4,0,5.5,0.6,8.3h-9   c-0.9-1.7-0.6-3.3-0.6-6v-15c0-6.3-1.2-7.8-7.3-7.8h-3.5v28.8l-9,0L270.6,16.7L270.6,16.7z M279.6,46.1h2.8c7.3,0,8.4-0.9,8.4-10.9   c0-9.9-0.9-10.7-6.6-10.7h-4.6C279.6,24.5,279.6,46.1,279.6,46.1z"/>
</g>
<script xmlns=""/></svg>