<?xml version="1.0" encoding="UTF-8"?>
<!-- Generator: Adobe Illustrator 22.0.1, SVG Export Plug-In . SVG Version: 6.00 Build 0)  -->
<svg version="1.1" id="Layer_1" xmlns="http://www.w3.org/2000/svg" xmlns:xlink="http://www.w3.org/1999/xlink" x="0px" y="0px" viewBox="0 0 300 100" style="enable-background:new 0 0 300 100;" xml:space="preserve"><link xmlns="" type="text/css" rel="stylesheet" id="dark-mode-custom-link"/><link xmlns="" type="text/css" rel="stylesheet" id="dark-mode-general-link"/><style xmlns="" lang="en" type="text/css" id="dark-mode-custom-style"/><style xmlns="" lang="en" type="text/css" id="dark-mode-native-style"/><style xmlns="" lang="en" type="text/css" id="dark-mode-native-sheet"/>
<style type="text/css">
	.st0{fill:#2EBD59;}
</style>
<g>
	<path class="st0" d="M44.988,5.01C20.142,5.01,0,25.153,0,49.998C0,74.848,20.142,94.99,44.988,94.99s44.988-20.142,44.988-44.991   C89.979,25.153,69.837,5.01,44.988,5.01L44.988,5.01z M65.619,69.895c-0.807,1.326-2.535,1.74-3.855,0.933   c-10.566-6.456-23.862-7.914-39.522-4.338c-1.509,0.345-3.012-0.6-3.357-2.109c-0.345-1.509,0.597-3.012,2.109-3.357   c17.136-3.918,31.839-2.232,43.695,5.013C66.012,66.85,66.432,68.574,65.619,69.895L65.619,69.895z M71.127,57.648   c-1.017,1.65-3.177,2.169-4.824,1.155c-12.09-7.431-30.525-9.585-44.829-5.244c-1.854,0.561-3.813-0.486-4.377-2.337   c-0.558-1.854,0.486-3.81,2.34-4.374c16.338-4.956,36.651-2.556,50.538,5.979C71.622,53.841,72.141,56.001,71.127,57.648   L71.127,57.648L71.127,57.648z M71.601,44.892c-14.502-8.613-38.421-9.405-52.266-5.202c-2.223,0.675-4.575-0.582-5.247-2.805   c-0.675-2.223,0.579-4.572,2.805-5.25c15.891-4.824,42.309-3.891,59.004,6.018c2.001,1.188,2.655,3.768,1.47,5.766   C76.182,45.421,73.593,46.077,71.601,44.892L71.601,44.892z M122.4,46.542c-7.767-1.851-9.15-3.153-9.15-5.883   c0-2.58,2.43-4.317,6.042-4.317c3.504,0,6.975,1.32,10.617,4.035c0.111,0.081,0.249,0.114,0.384,0.093s0.255-0.096,0.336-0.207   l3.792-5.346c0.156-0.219,0.114-0.525-0.096-0.693c-4.335-3.477-9.213-5.169-14.919-5.169c-8.388,0-14.247,5.034-14.247,12.234   c0,7.722,5.055,10.458,13.788,12.567c7.434,1.713,8.688,3.147,8.688,5.712c0,2.841-2.538,4.608-6.618,4.608   c-4.533,0-8.232-1.527-12.369-5.109c-0.102-0.09-0.243-0.129-0.372-0.12c-0.138,0.012-0.261,0.075-0.348,0.18l-4.254,5.061   c-0.177,0.21-0.156,0.525,0.051,0.705c4.812,4.296,10.734,6.567,17.121,6.567c9.039,0,14.877-4.938,14.877-12.582   c0.015-6.453-3.846-10.026-13.308-12.327L122.4,46.542L122.4,46.542z M156.168,38.881c-3.918,0-7.131,1.542-9.78,4.704v-3.558   c0-0.282-0.228-0.51-0.507-0.51h-6.954c-0.282,0-0.507,0.228-0.507,0.51v39.54c0,0.282,0.228,0.51,0.507,0.51h6.954   c0.279,0,0.507-0.228,0.507-0.51v-12.48c2.649,2.973,5.865,4.428,9.78,4.428c7.278,0,14.646-5.604,14.646-16.314   c0.012-10.713-7.359-16.32-14.64-16.32L156.168,38.881L156.168,38.881z M162.729,55.2c0,5.454-3.36,9.261-8.172,9.261   c-4.755,0-8.343-3.978-8.343-9.261c0-5.28,3.588-9.261,8.343-9.261C159.291,45.936,162.729,49.83,162.729,55.2L162.729,55.2   L162.729,55.2z M189.702,38.881c-9.375,0-16.719,7.218-16.719,16.434c0,9.117,7.293,16.26,16.602,16.26   c9.408,0,16.773-7.194,16.773-16.374C206.361,46.05,199.044,38.881,189.702,38.881L189.702,38.881L189.702,38.881z M189.702,64.516   c-4.986,0-8.745-4.005-8.745-9.318c0-5.334,3.63-9.204,8.631-9.204c5.019,0,8.802,4.005,8.802,9.321   C198.39,60.645,194.736,64.516,189.702,64.516L189.702,64.516L189.702,64.516z M226.38,39.516h-7.653v-7.824   c0-0.279-0.228-0.51-0.507-0.51h-6.954c-0.282,0-0.51,0.228-0.51,0.51v7.824h-3.345c-0.279,0-0.507,0.228-0.507,0.51v5.979   c0,0.279,0.228,0.51,0.507,0.51h3.345v15.468c0,6.252,3.111,9.42,9.246,9.42c2.496,0,4.566-0.516,6.516-1.62   c0.159-0.09,0.258-0.258,0.258-0.441v-5.691c0-0.177-0.09-0.342-0.243-0.435c-0.15-0.096-0.339-0.099-0.495-0.024   c-1.341,0.675-2.634,0.984-4.083,0.984c-2.232,0-3.228-1.014-3.228-3.285V46.518h7.653c0.282,0,0.507-0.228,0.507-0.51v-5.976   c0.012-0.282-0.216-0.51-0.501-0.51L226.38,39.516z M253.047,39.547v-0.96c0-2.826,1.083-4.089,3.516-4.089   c1.449,0,2.616,0.288,3.918,0.723c0.162,0.051,0.327,0.024,0.459-0.072c0.135-0.096,0.21-0.249,0.21-0.414v-5.862   c0-0.225-0.144-0.423-0.36-0.489c-1.377-0.411-3.141-0.831-5.781-0.831c-6.423,0-9.819,3.618-9.819,10.458v1.473h-3.342   c-0.279,0-0.51,0.228-0.51,0.51v6.009c0,0.279,0.231,0.51,0.51,0.51h3.342v23.859c0,0.282,0.228,0.51,0.507,0.51h6.954   c0.282,0,0.51-0.228,0.51-0.51V46.515h6.495l9.948,23.853c-1.128,2.505-2.241,3.006-3.756,3.006c-1.224,0-2.517-0.366-3.834-1.089   c-0.123-0.069-0.27-0.081-0.405-0.039c-0.132,0.048-0.243,0.147-0.3,0.276l-2.358,5.172c-0.111,0.243-0.015,0.531,0.219,0.657   c2.46,1.332,4.683,1.902,7.428,1.902c5.136,0,7.974-2.391,10.476-8.829l12.066-31.179c0.06-0.156,0.042-0.333-0.054-0.474   c-0.096-0.138-0.249-0.222-0.42-0.222h-7.242c-0.216,0-0.411,0.138-0.483,0.342l-7.416,21.186l-8.124-21.201   c-0.075-0.198-0.264-0.327-0.474-0.327L253.047,39.547L253.047,39.547L253.047,39.547z M237.585,39.516h-6.954   c-0.282,0-0.51,0.228-0.51,0.51v30.345c0,0.282,0.228,0.51,0.51,0.51h6.954c0.279,0,0.51-0.228,0.51-0.51V40.029   C238.095,39.747,237.87,39.519,237.585,39.516C237.588,39.519,237.585,39.519,237.585,39.516L237.585,39.516z M234.147,25.701   c-2.754,0-4.992,2.232-4.992,4.986c0,2.757,2.235,4.989,4.992,4.989c2.754,0,4.989-2.232,4.989-4.989   C239.136,27.93,236.901,25.701,234.147,25.701L234.147,25.701L234.147,25.701z M295.08,49.272c-2.754,0-4.896-2.211-4.896-4.896   s2.169-4.92,4.92-4.92c2.754,0,4.896,2.211,4.896,4.893C300,47.034,297.831,49.272,295.08,49.272L295.08,49.272z M295.107,39.945   c-2.508,0-4.404,1.992-4.404,4.434c0,2.439,1.884,4.407,4.38,4.407c2.508,0,4.407-1.992,4.407-4.434   C299.487,41.91,297.6,39.945,295.107,39.945L295.107,39.945L295.107,39.945z M296.193,44.853l1.383,1.938h-1.167l-1.245-1.779   h-1.074v1.779h-0.978v-5.139h2.292c1.194,0,1.98,0.612,1.98,1.638c0.006,0.843-0.483,1.356-1.188,1.56L296.193,44.853   L296.193,44.853z M295.365,42.534h-1.275v1.626h1.275c0.636,0,1.017-0.312,1.017-0.813   C296.379,42.819,295.998,42.534,295.365,42.534L295.365,42.534L295.365,42.534z"/>
</g>
<script xmlns=""/></svg>